<svg xmlns="http://www.w3.org/2000/svg" viewBox="0 0 640 360"><defs><linearGradient id="bg" x2="1" y2="1"><stop stop-color="#342453"/><stop offset="1" stop-color="#76519a"/></linearGradient><linearGradient id="pad" x2="0" y2="1"><stop stop-color="#fff1b0"/><stop offset="1" stop-color="#e5aa58"/></linearGradient><filter id="shadow"><feDropShadow dx="0" dy="12" stdDeviation="10" flood-opacity=".25"/></filter></defs><rect width="640" height="360" fill="url(#bg)"/><circle cx="535" cy="60" r="150" fill="#ba97ed" opacity=".12"/><circle cx="70" cy="340" r="160" fill="#fbb4d6" opacity=".08"/><g filter="url(#shadow)"><rect x="139" y="110" width="362" height="170" rx="30" fill="#251e41" transform="rotate(-7 320 190)"/><g fill="url(#pad)"><rect x="173" y="151" width="55" height="74" rx="12" transform="rotate(-7 200 190)"/><rect x="247" y="139" width="55" height="74" rx="12" transform="rotate(-7 274 176)"/><rect x="321" y="128" width="55" height="74" rx="12" transform="rotate(-7 348 165)"/><rect x="395" y="117" width="55" height="74" rx="12" transform="rotate(-7 422 154)"/></g></g><path d="M80 177v20m18-35v50m18-72v96M524 147v54m18-70v90m18-43v22" stroke="#cfb7f3" stroke-width="10" stroke-linecap="round"/><path d="M329 98V49l47-10v49" fill="none" stroke="#f4bbd3" stroke-width="9" stroke-linejoin="round"/><ellipse cx="319" cy="98" rx="15" ry="10" fill="#f4bbd3"/><ellipse cx="366" cy="88" rx="15" ry="10" fill="#f4bbd3"/></svg>
